HIERARCHY
ROOT root
{
	OFFSET	0	13.1	24.9
	CHANNELS 6  Xposition Yposition Zposition Xrotation Yrotation Zrotation
	JOINT spine_1
	{
		OFFSET	0	9.99999	0
		CHANNELS 3  Xrotation Yrotation Zrotation
		JOINT spine_2
		{
			OFFSET	0	112	-10
			CHANNELS 3  Xrotation Yrotation Zrotation
			JOINT spine_3
			{
				OFFSET	0	206.5	19.3
				CHANNELS 3  Xrotation Yrotation Zrotation
				JOINT spine_4
				{
					OFFSET	0	110.4	14.6
					CHANNELS 3  Xrotation Yrotation Zrotation
					JOINT neck_1
					{
						OFFSET	0	71.8	-50.3
						CHANNELS 3  Xrotation Yrotation Zrotation
						JOINT neck_2
						{
							OFFSET	0	86.2	-25.8
							CHANNELS 3  Xrotation Yrotation Zrotation
							JOINT head_ee
							{
								OFFSET	0	179.8	-8.7
								CHANNELS 3  Xrotation Yrotation Zrotation
								End Site
								{
									OFFSET	1	0	0
								}
							}
						}
					}
					JOINT left_clavicle
					{
						OFFSET	-43.2	22.4	-70.8
						CHANNELS 3  Xrotation Yrotation Zrotation
						JOINT left_shoulder
						{
							OFFSET	-93.9	-5.79999	48.7
							CHANNELS 3  Xrotation Yrotation Zrotation
							JOINT left_elbow
							{
								OFFSET	-291.4	-30.8	15.2
								CHANNELS 3  Xrotation Yrotation Zrotation
								JOINT left_lowarm_twist
								{
									OFFSET	-110.7	-3.89999	13.6
									CHANNELS 3  Xrotation Yrotation Zrotation
									JOINT left_hand
									{
										OFFSET	-110.7	-3.89999	13.6
										CHANNELS 3  Xrotation Yrotation Zrotation
										JOINT left_ee
										{
											OFFSET	-80.8	-5.10001	12.1
											CHANNELS 3  Xrotation Yrotation Zrotation
											End Site
											{
												OFFSET	1	0	0
											}
										}
									}
								}
							}
						}
					}
					JOINT right_clavicle
					{
						OFFSET	43.2	22.4	-70.8
						CHANNELS 3  Xrotation Yrotation Zrotation
						JOINT right_shoulder
						{
							OFFSET	93.9	-5.79999	48.7
							CHANNELS 3  Xrotation Yrotation Zrotation
							JOINT right_elbow
							{
								OFFSET	291.4	-30.8	15.2
								CHANNELS 3  Xrotation Yrotation Zrotation
								JOINT right_lowarm_twist
								{
									OFFSET	110.7	-3.89999	13.6
									CHANNELS 3  Xrotation Yrotation Zrotation
									JOINT right_hand
									{
										OFFSET	110.7	-3.89999	13.6
										CHANNELS 3  Xrotation Yrotation Zrotation
										JOINT right_ee
										{
											OFFSET	80.8	-5.10001	12.1
											CHANNELS 3  Xrotation Yrotation Zrotation
											End Site
											{
												OFFSET	1	0	0
											}
										}
									}
								}
							}
						}
					}
				}
			}
		}
	}
	JOINT left_hip
	{
		OFFSET	-82.8	-127.5	0.300001
		CHANNELS 3  Xrotation Yrotation Zrotation
		JOINT left_knee
		{
			OFFSET	-28.2	-396.7	2.2
			CHANNELS 3  Xrotation Yrotation Zrotation
			JOINT left_ankle
			{
				OFFSET	-11.7	-411.3	35.4
				CHANNELS 3  Xrotation Yrotation Zrotation
				JOINT left_toes
				{
					OFFSET	0	-60	-88.6
					CHANNELS 3  Xrotation Yrotation Zrotation
					JOINT left_foot_ee
					{
						OFFSET	-22.5	-16.5	-42.2
						CHANNELS 3  Xrotation Yrotation Zrotation
						End Site
						{
							OFFSET	1	0	0
						}
					}
				}
			}
		}
	}
	JOINT right_hip
	{
		OFFSET	82.8	-127.5	0.300001
		CHANNELS 3  Xrotation Yrotation Zrotation
		JOINT right_knee
		{
			OFFSET	28.2	-396.7	2.2
			CHANNELS 3  Xrotation Yrotation Zrotation
			JOINT right_ankle
			{
				OFFSET	11.7	-411.3	35.4
				CHANNELS 3  Xrotation Yrotation Zrotation
				JOINT right_toes
				{
					OFFSET	0	-60	-88.6
					CHANNELS 3  Xrotation Yrotation Zrotation
					JOINT right_foot_ee
					{
						OFFSET	22.5	-16.5	-42.2
						CHANNELS 3  Xrotation Yrotation Zrotation
						End Site
						{
							OFFSET	1	0	0
						}
					}
				}
			}
		}
	}
}
MOTION
Frames: 14
Frame Time: 0.02
1920.98 670.58 -1442.24 -17.1072 75.3204 18.6639 2.28364 0.604004 1.31502 2.28445 0.51911 1.35078 2.29673 0.28084 1.41957 2.29427 0.501489 1.35742 -16.4383 9.65592 -2.07316 -16.844 19.6965 1.58589 -0.0 0.0 -0.0 -2.87941 23.5957 -1.20363 -28.9714 -3.92434 72.0558 0.249248 -7.03887 0.0153295 -21.3267 -1.21761 2.42422 0.995815 14.9689 12.3954 -0.0 0.0 -0.0 13.1956 25.3164 -26.2089 11.2618 33.7045 -56.9383 2.37263 49.6007 -1.09645 14.5828 -0.28144 1.83655 0.333426 17.0704 5.02798 0.0 0.0 0.0 33.1574 4.34931 -12.6632 -4.12866 0.147835 0.616241 1.59895 3.09871 -0.234056 -39.6116 0.0 0.0 -0.0 0.0 -0.0 -17.1383 16.1357 -0.761753 -5.42885 -0.185146 -0.812286 41.2674 -10.5409 4.9905 -5.78779 0.0 0.0 0.0 0.0 0.0 
1900.4 665.595 -1436.33 -17.2205 75.7693 18.9174 2.39429 0.542637 1.33664 2.39517 0.456492 1.36845 2.40606 0.218826 1.42588 2.4035 0.44125 1.37344 -15.0408 9.72043 -2.71633 -15.3918 20.194 0.749098 -0.0 0.0 -0.0 -3.05221 23.2537 -1.50895 -28.7894 -3.7058 72.1203 0.267097 -7.53731 0.0175939 -20.7504 -1.17315 2.36529 1.43986 15.0117 15.2573 -0.0 0.0 -0.0 13.1023 26.2276 -25.8865 10.2892 32.7218 -56.4573 2.4705 50.7392 -1.17161 14.9935 -0.282552 1.889 0.228636 17.8078 6.04577 0.0 0.0 0.0 32.7496 6.47955 -11.3442 -6.78098 0.219216 1.01699 4.63988 3.18344 -0.673373 -37.8224 0.0 0.0 -0.0 0.0 -0.0 -17.6635 17.4434 -0.516997 -7.70351 -0.239683 -1.15708 41.2584 -12.9133 5.01466 -5.88903 0.0 0.0 0.0 0.0 0.0 
1880.77 669.809 -1429.43 -17.6182 74.7824 18.6634 2.55246 0.675484 1.54017 2.5536 0.576123 1.58002 2.56943 0.305783 1.65373 2.56605 0.563089 1.58471 -16.3474 9.2839 0.231774 -16.6748 17.6752 3.57549 -0.0 0.0 -0.0 -2.69201 23.5358 -0.958152 -26.7526 -3.59144 71.4392 0.219291 -6.1999 0.0118761 -19.2065 -1.05699 2.20527 1.67238 18.5111 17.8863 -0.0 0.0 -0.0 12.9456 27.0176 -25.4282 9.15632 31.8847 -57.2732 2.50696 51.1496 -1.19993 13.5189 -0.276811 1.70075 0.199188 15.82 5.39387 0.0 0.0 0.0 32.8562 5.97246 -10.5713 -9.7652 0.277251 1.47119 7.25165 4.55035 -1.04211 -39.0305 0.0 0.0 -0.0 0.0 -0.0 -18.1074 17.8609 0.979745 -8.41034 -0.253836 -1.26462 37.8715 -14.4074 4.72881 -6.03307 0.0 0.0 0.0 0.0 0.0 
1850.01 678.293 -1426.63 -16.8027 75.612 17.3107 2.55885 0.587306 1.80173 2.56054 0.471487 1.83543 2.57545 0.160346 1.88821 2.57077 0.456491 1.83922 -15.1426 10.2761 0.434843 -15.4871 19.4054 3.92296 -0.0 0.0 -0.0 -2.46585 23.7337 -0.612036 -26.9053 -5.78611 70.5868 0.354979 -9.97347 0.0309739 -18.3442 -0.994011 2.11457 1.72358 17.4649 17.8882 -0.0 0.0 -0.0 13.2824 25.9831 -26.3327 6.82248 30.6348 -58.472 2.50913 51.1738 -1.20161 13.7611 -0.278087 1.73165 0.160618 14.585 5.12564 0.0 0.0 0.0 31.7702 5.67815 -10.6199 -12.389 0.308676 1.87253 10.3617 -0.771876 -1.48781 -39.2775 0.0 0.0 -0.0 0.0 -0.0 -17.9651 18.0007 1.6173 -11.904 -0.304253 -1.79825 37.6215 -14.9633 4.71279 -8.17857 0.0 0.0 0.0 0.0 0.0 
1832.61 679.809 -1426.26 -16.9689 75.4675 17.4681 2.51662 0.740051 2.01869 2.51868 0.610125 2.06166 2.54047 0.258313 2.13444 2.5346 0.592095 2.06691 -16.3375 9.77425 0.880009 -16.6842 18.2475 4.36299 -0.0 0.0 -0.0 -2.80857 23.5756 -1.11042 -25.5143 -7.148 70.0462 0.441485 -12.3365 0.0477133 -16.9853 -0.897568 1.96976 2.08232 20.387 21.0675 -0.0 0.0 -0.0 13.3924 25.6315 -26.6297 5.40351 29.8001 -59.7015 2.4681 50.7119 -1.16976 13.5242 -0.27684 1.70142 0.0919229 15.4623 5.96323 0.0 0.0 0.0 32.2892 4.26069 -10.7236 -16.9919 0.319322 2.57847 14.9919 3.91689 -2.09574 -38.3836 0.0 0.0 -0.0 0.0 -0.0 -17.7122 17.5883 1.64019 -11.9289 -0.304494 -1.80205 37.3002 -16.9849 4.71328 -8.8365 0.0 0.0 0.0 0.0 0.0 
1807.72 677.707 -1425.49 -18.8563 75.4998 19.4887 2.64959 0.570803 2.03796 2.65179 0.439994 2.07013 2.66734 0.0937115 2.11428 2.66136 0.426375 2.07298 -14.6822 10.297 2.30152 -14.9528 18.3094 5.5935 -0.0 0.0 -0.0 -2.76988 22.7056 -1.22378 -24.4425 -7.11207 69.4316 0.462966 -12.917 0.0524091 -15.4178 -0.790633 1.79996 2.4003 21.0672 23.3108 -0.0 0.0 -0.0 13.4833 25.5908 -26.8458 4.23266 29.0684 -61.4396 2.4716 50.7517 -1.17247 12.3717 -0.268995 1.55442 0.146333 12.501 4.33109 0.0 0.0 0.0 30.8317 4.88222 -11.122 -16.4334 0.321054 2.4928 14.7986 2.9075 -2.07298 -39.0364 0.0 0.0 -0.0 0.0 -0.0 -16.5244 17.8637 1.23923 -15.9439 -0.321885 -2.41771 37.7279 -17.3393 4.76044 -11.2418 0.0 0.0 0.0 0.0 0.0 
1781.0 683.11 -1421.34 -20.9161 75.2301 21.6301 2.76146 0.512742 2.06226 2.76374 0.380505 2.09069 2.77716 0.0356854 2.12472 2.77105 0.370723 2.09245 -12.1834 10.0966 0.677427 -12.3833 18.7302 3.57159 -0.0 0.0 -0.0 -2.33006 22.3091 -0.680535 -23.3369 -7.80567 68.9545 0.472568 -13.1757 0.0545765 -14.5644 -0.734389 1.70633 2.57561 23.5138 25.0561 -0.0 0.0 -0.0 13.374 25.608 -26.5896 2.81142 28.1875 -62.42 2.17045 47.0686 -0.945375 12.5422 -0.270342 1.57616 -0.0999942 9.93538 4.90146 0.0 0.0 0.0 30.4841 5.94443 -10.2051 -19.9623 0.296087 3.03359 23.9514 6.3543 -3.20834 -36.6411 0.0 0.0 -0.0 0.0 -0.0 -16.1929 19.3157 1.02418 -16.3274 -0.321288 -2.47655 35.7535 -17.6201 4.57246 -13.3967 0.0 0.0 0.0 0.0 0.0 
1753.98 687.529 -1417.81 -23.9412 76.4413 24.5843 2.83492 0.379503 2.15366 2.83747 0.241724 2.17343 2.84601 -0.112175 2.18395 2.83943 0.234063 2.17427 -9.29116 11.1309 -0.361135 -9.40213 21.1511 2.33772 -0.0 0.0 -0.0 -2.4053 21.9959 -0.84279 -22.1498 -8.64522 68.5221 0.540633 -14.9929 0.0711422 -14.5232 -0.731709 1.70179 2.84046 23.3497 26.7507 -0.0 0.0 -0.0 13.11 23.4628 -26.2069 1.7777 25.8809 -64.0619 1.89806 43.2314 -0.752154 12.4072 -0.26928 1.55895 -0.169509 7.04751 4.13777 0.0 0.0 0.0 28.2883 5.86527 -9.05253 -20.5505 0.288688 3.12354 27.7055 7.34674 -3.63839 -35.4559 0.0 0.0 -0.0 0.0 -0.0 -13.4088 20.4226 -0.0894118 -20.7446 -0.286044 -3.1532 39.1776 -21.0451 4.9766 -13.8364 0.0 0.0 0.0 0.0 0.0 
1730.82 689.757 -1416.2 -25.3039 77.729 25.6322 2.78447 0.268767 2.20807 2.78717 0.127752 2.22069 2.79145 -0.234476 2.21198 2.78464 0.117718 2.22125 -9.80987 11.5289 0.554024 -9.95144 21.3255 3.42867 -0.0 0.0 -0.0 -2.78469 23.2756 -1.13521 -19.4491 -10.687 68.6229 0.690836 -18.892 0.114938 -16.3624 -0.854517 1.90264 2.77952 28.1629 27.3236 -0.0 0.0 -0.0 13.2057 24.9698 -26.2712 -0.764124 22.4831 -64.9085 1.81395 41.9382 -0.695238 11.2894 -0.258936 1.41655 -0.000275858 6.92143 2.93949 0.0 0.0 0.0 25.7499 6.4148 -7.26479 -18.528 0.310252 2.81398 31.2499 7.54627 -4.02166 -34.6065 0.0 0.0 -0.0 0.0 -0.0 -10.1014 20.7526 -1.203 -29.2819 -0.0709021 -4.4445 38.3319 -25.6619 5.02585 -12.739 0.0 0.0 0.0 0.0 0.0 
1712.45 695.217 -1413.99 -27.7408 78.8557 27.661 2.69787 0.213309 2.42129 2.70113 0.0588505 2.42995 2.70285 -0.340249 2.40674 2.69477 0.0440046 2.43026 -8.15532 11.8348 0.0319788 -8.21669 22.0995 2.67478 -0.0 0.0 -0.0 -2.81591 22.9304 -1.2448 -16.9327 -12.7623 68.6024 0.775203 -21.0074 0.143729 -16.9984 -0.898478 1.97116 2.90428 30.1887 28.4422 -0.0 0.0 -0.0 13.148 24.5814 -26.1797 -2.16396 20.6104 -66.3179 1.5705 37.8795 -0.538951 11.15 -0.257452 1.39881 -0.291755 3.76705 3.55977 0.0 0.0 0.0 25.1824 6.3972 -6.52225 -21.2434 0.278789 3.2294 33.5961 10.4078 -4.27421 -33.6074 0.0 0.0 -0.0 0.0 -0.0 -5.51926 20.7207 -1.71276 -36.4756 0.257906 -5.49857 42.0182 -25.9877 5.39232 -11.6666 0.0 0.0 0.0 0.0 0.0 
1698.11 699.958 -1411.7 -29.0593 78.9381 28.6222 2.51653 0.144531 2.54905 2.52014 -0.0179103 2.55308 2.51862 -0.444341 2.5142 2.5098 -0.0418282 2.5528 -7.8808 12.1761 0.15035 -7.93022 22.6273 2.81553 -0.0 0.0 -0.0 -3.14137 22.6579 -1.75279 -14.85 -14.0543 68.89 0.860036 -23.0756 0.17557 -17.6676 -0.945559 2.04275 2.96059 31.6341 28.9968 -0.0 0.0 -0.0 12.9296 24.0722 -25.7267 -4.00123 18.6883 -66.995 1.4665 35.9948 -0.476445 10.8217 -0.253784 1.35704 -0.334049 2.73143 3.40086 0.0 0.0 0.0 24.3014 6.67962 -5.76619 -21.4907 0.274946 3.26715 35.7032 11.4345 -4.49017 -32.909 0.0 0.0 -0.0 0.0 -0.0 -2.30991 20.6087 -1.63365 -41.8486 0.588542 -6.2551 42.2905 -27.3633 5.46973 -11.107 0.0 0.0 0.0 0.0 0.0 
1685.99 703.146 -1412.19 -25.7366 79.3972 24.9841 2.19174 0.180653 2.8896 2.19639 -0.00350682 2.89523 2.19568 -0.503488 2.85116 2.18434 -0.0470788 2.89485 -7.43101 12.1056 0.293767 -7.45456 22.346 2.85338 -0.0 0.0 -0.0 -3.71602 22.5561 -2.5812 -13.1226 -16.265 69.9398 0.877165 -23.4857 0.18234 -18.1734 -0.981702 2.0965 3.05867 30.0756 29.3953 -0.0 0.0 -0.0 12.5612 23.3035 -24.9513 -5.38267 17.1386 -68.7488 1.35585 33.8854 -0.413058 10.2445 -0.246756 1.28364 -0.309769 3.42693 3.53546 0.0 0.0 0.0 21.683 5.38248 -4.36608 -19.6246 0.299916 2.98192 32.5353 8.61094 -4.15775 -34.7331 0.0 0.0 -0.0 0.0 -0.0 0.883002 17.487 -1.36983 -46.2155 0.908766 -6.84548 41.1902 -24.4543 5.26276 -10.0729 0.0 0.0 0.0 0.0 0.0 
1668.89 710.62 -1409.15 -25.9272 80.0882 25.1551 1.95715 0.360598 2.85655 1.96167 0.178175 2.87368 1.9705 -0.33184 2.86003 1.95911 0.12382 2.87654 -7.19447 13.0286 0.341849 -7.20745 24.0079 3.0527 -0.0 0.0 -0.0 -3.21327 20.7478 -2.24293 -4.91093 -19.221 72.483 0.993017 -26.1926 0.23102 -18.4758 -1.00354 2.12848 3.09653 30.2057 29.6532 -0.0 0.0 -0.0 12.9188 23.4367 -25.7655 -7.99191 15.1082 -68.704 1.0525 27.5359 -0.257902 10.3482 -0.248073 1.29682 -0.219216 4.77077 3.50003 0.0 0.0 0.0 20.7212 7.17088 -3.5932 -19.4064 0.302229 2.94852 32.5727 8.7037 -4.16191 -32.43 0.0 0.0 -0.0 0.0 -0.0 4.17971 14.9787 -2.2221 -50.7928 1.29192 -7.43671 42.2548 -24.677 5.36813 -10.656 0.0 0.0 0.0 0.0 0.0 
1656.98 714.077 -1405.47 -24.4697 81.6568 23.5177 1.72563 0.321085 2.82678 1.73006 0.140634 2.84146 1.73718 -0.374639 2.82018 1.72609 0.0752718 2.84394 -7.34108 12.5846 -0.954948 -7.35423 24.1171 1.69774 -0.0 0.0 -0.0 -3.46117 21.2113 -2.50685 -0.969186 -22.4826 75.754 1.21243 -30.9879 0.336111 -19.1174 -1.05042 2.19595 3.08441 29.5932 29.4892 -0.0 0.0 -0.0 12.9779 23.0133 -25.9435 -9.58338 13.7238 -68.9466 0.847356 22.7703 -0.170631 10.7245 -0.252652 1.34467 -0.266701 7.37145 4.93452 0.0 0.0 0.0 18.322 6.52162 -2.08033 -18.2212 0.312568 2.76697 31.9933 6.22816 -4.09744 -32.7781 0.0 0.0 -0.0 0.0 -0.0 6.57693 11.7297 -2.22154 -54.8084 1.66623 -7.92919 41.7131 -24.1646 5.30171 -11.0505 0.0 0.0 0.0 0.0 0.0 
